<svg width="64" height="64" viewBox="0 0 64 64" fill="none" xmlns="http://www.w3.org/2000/svg">
  <defs>
    <linearGradient id="g" x1="10" y1="6" x2="58" y2="60" gradientUnits="userSpaceOnUse">
      <stop stop-color="#2563EB"/>
      <stop offset="1" stop-color="#7C3AED"/>
    </linearGradient>
    <filter id="s" x="-20%" y="-20%" width="140%" height="140%" color-interpolation-filters="sRGB">
      <feDropShadow dx="0" dy="6" stdDeviation="6" flood-color="#0F172A" flood-opacity="0.22"/>
    </filter>
  </defs>
  <rect x="8" y="8" width="48" height="48" rx="14" fill="url(#g)" filter="url(#s)"/>
  <path d="M22 40V22h13.2c3.4 0 5.8 2.2 5.8 5.3 0 2.2-1.2 3.9-3.1 4.6 2.4.6 3.9 2.4 3.9 4.9 0 3.4-2.7 5.2-6.3 5.2H22zm5.2-10.8h7.3c1.2 0 2-.7 2-1.8 0-1.1-.8-1.8-2-1.8h-7.3v3.6zm0 6.6h7.9c1.4 0 2.2-.7 2.2-1.9 0-1.2-.9-1.9-2.2-1.9h-7.9v3.8z" fill="white" fill-opacity="0.95"/>
</svg>
